M48
; DRILL file {KiCad 5.1.5+dfsg1-2build2} date Wed 12 Aug 2020 08:41:48 PM CEST
; FORMAT={-:-/ absolute / inch / decimal}
; #@! TF.CreationDate,2020-08-12T20:41:48+02:00
; #@! TF.GenerationSoftware,Kicad,Pcbnew,5.1.5+dfsg1-2build2
; #@! TF.FileFunction,Plated,1,2,PTH
FMAT,2
INCH
T1C0.0118
T2C0.0236
T3C0.0669
%
G90
G05
T1
X2.0669Y-4.1339
X2.0669Y-4.2618
X2.0669Y-4.3012
X2.0669Y-4.3406
X2.0669Y-4.3799
X2.0866Y-4.0453
X2.0866Y-4.439
X2.0866Y-4.4783
X2.0866Y-4.5177
X2.1063Y-3.3465
X2.126Y-4.5866
X2.126Y-4.626
X2.1358Y-3.9961
X2.185Y-3.9567
X2.2244Y-4.5374
X2.2244Y-4.5866
X2.2638Y-3.0709
X2.2638Y-4.5079
X2.2638Y-4.5571
X2.2638Y-4.6063
X2.3327Y-3.1398
X2.3524Y-3.9567
X2.3799Y-4.3189
X2.4016Y-3.8484
X2.4114Y-4.6358
X2.4114Y-4.6752
X2.4213Y-4.0354
X2.4213Y-4.0846
X2.4311Y-4.311
X2.4311Y-4.3406
X2.4606Y-4.0846
X2.4606Y-4.1535
X2.4705Y-4.4193
X2.4705Y-4.4587
X2.4705Y-4.498
X2.4764Y-4.6929
X2.4902Y-3.8484
X2.4902Y-4.0157
X2.5394Y-3.0551
X2.5945Y-3.1457
X2.6181Y-4.3799
X2.6181Y-4.6949
X2.6476Y-3.6713
X2.6535Y-3.4646
X2.6535Y-3.5315
X2.6575Y-3.7894
X2.6575Y-3.878
X2.6673Y-3.2579
X2.6673Y-3.3366
X2.6673Y-3.5827
X2.7008Y-3.4646
X2.7008Y-3.5315
X2.7264Y-3.5827
X2.7756Y-3.4646
X2.7913Y-3.4961
X2.815Y-3.6516
X2.8642Y-3.622
X2.8937Y-3.9272
X2.9134Y-3.622
X2.9232Y-3.7894
X3.0354Y-2.6634
X3.0354Y-2.7717
X3.0512Y-2.8543
X3.1339Y-2.7618
X3.622Y-4.9016
X3.6713Y-2.1457
X3.6909Y-2.4508
X3.7205Y-2.0965
X3.7598Y-2.1752
X3.7697Y-5.0591
X3.7992Y-5.0886
X3.8091Y-2.0177
X3.8327Y-5.565
X3.8386Y-5.3701
X3.8386Y-5.3976
X3.8524Y-5.6437
X3.872Y-5.6043
X3.874Y-5.1024
X3.8878Y-2.1654
X3.8917Y-5.565
X3.9075Y-5.1969
X3.9114Y-5.6437
X3.9311Y-5.6043
X3.9449Y-5.1024
X3.9469Y-2.0079
X3.9508Y-5.565
X3.9665Y-5.1969
X3.9665Y-5.2559
X3.9705Y-5.6437
X3.9902Y-5.6043
X4.0059Y-2.0866
X4.0098Y-5.565
X4.0197Y-5.3701
X4.0197Y-5.3976
X4.0256Y-5.1378
X4.0295Y-5.6437
X4.0846Y-2.1555
X4.0965Y-5.2244
X4.1339Y-2.0079
X4.1339Y-5.0197
X4.1732Y-4.9606
X4.1732Y-5.2028
X4.2224Y-2.126
X4.2323Y-5.0197
X4.252Y-2.0866
X4.2717Y-2.9232
X4.2815Y-2.126
X4.3012Y-2.9528
X4.3307Y-2.9823
X4.3406Y-5.2362
X4.3406Y-5.2756
X4.3602Y-3.0118
X4.3898Y-2.3524
X4.3898Y-2.4902
X4.3898Y-2.5984
X4.4094Y-5.2362
X4.4094Y-5.2756
X4.4587Y-2.4114
X4.4587Y-2.5098
X4.4587Y-2.5787
X4.4783Y-4.9409
X4.5079Y-2.4606
X4.5247Y-2.7292
X4.5374Y-4.8917
X4.5472Y-2.687
X4.5768Y-2.7854
X4.5866Y-2.5492
X4.5965Y-2.9724
X4.6063Y-4.9409
X4.6161Y-2.7165
X4.626Y-3.002
X4.6555Y-3.0315
X4.6654Y-4.9016
X4.6654Y-5.0886
X4.6713Y-2.6476
X4.685Y-3.061
X4.7244Y-3.0118
X4.7244Y-3.0512
X4.7244Y-4.9213
X4.7343Y-2.8937
X4.7343Y-4.8622
X4.7441Y-2.9528
X4.7638Y-2.3524
X4.7638Y-3.1201
X4.8031Y-2.3917
X4.813Y-2.815
X4.8228Y-4.7638
X4.8228Y-4.8327
X4.8425Y-2.9724
X4.8425Y-3.0807
X4.9409Y-3.2874
X4.9409Y-4.124
X4.9409Y-4.1929
X4.9508Y-3.5039
X4.9508Y-3.6024
X4.9508Y-3.7008
X4.9528Y-2.7362
X4.9606Y-2.8543
X4.9606Y-4.8327
X4.9685Y-3.0945
X4.9803Y-3.3268
X4.9902Y-3.9272
X5.0098Y-4.1929
X5.0394Y-3.2776
X5.0492Y-2.9626
X5.0492Y-4.3602
X5.0591Y-2.6264
X5.0748Y-2.9882
X5.0787Y-3.9961
X5.0787Y-4.6063
X5.0886Y-3.2776
X5.0984Y-2.5886
X5.1083Y-3.7795
X5.1083Y-3.8287
X5.1575Y-4.7244
X5.1634Y-4.1831
X5.1673Y-4.124
X5.1969Y-4.6063
X5.2067Y-4.3504
X5.2146Y-3.4577
X5.2264Y-3.1398
X5.2362Y-3.9961
X5.2461Y-3.7303
X5.2461Y-4.0945
X5.2461Y-4.2126
X5.2559Y-3.9567
X5.2835Y-4.1732
X5.2854Y-4.0853
X5.2854Y-4.7835
X5.315Y-4.3602
X5.3248Y-3.8681
X5.3248Y-3.9272
X5.4134Y-4.2323
X5.4134Y-4.5965
X5.4429Y-3.7303
X5.502Y-4.1043
X5.5512Y-4.2323
X5.6594Y-3.6516
T3
X3.7913Y-2.6575
X3.7913Y-2.8543
X4.0827Y-2.6575
X4.0827Y-2.8543
X4.8018Y-4.6045
X4.9474Y-4.3522
X4.9722Y-4.7029
X5.1179Y-4.4506
X2.7561Y-4.4506
X2.9018Y-4.7029
X2.9266Y-4.3522
X3.0722Y-4.6045
T2
X3.7626Y-5.5104G85X3.7626Y-5.4671
G05
X3.7626Y-5.6652G85X3.7626Y-5.6415
G05
X4.1028Y-5.5104G85X4.1028Y-5.4671
G05
X4.1028Y-5.6652G85X4.1028Y-5.6415
G05
T0
M30
