M48
; DRILL file {KiCad 6.0.0-d3dd2cf0fa~116~ubuntu20.04.1} date Wed 19 Jan 2022 12:36:30 AM CET
; FORMAT={-:-/ absolute / metric / decimal}
; #@! TF.CreationDate,2022-01-19T00:36:30+01:00
; #@! TF.GenerationSoftware,Kicad,Pcbnew,6.0.0-d3dd2cf0fa~116~ubuntu20.04.1
; #@! TF.FileFunction,Plated,1,2,PTH
FMAT,2
METRIC
; #@! TA.AperFunction,Plated,PTH,ViaDrill
T1C0.300
; #@! TA.AperFunction,Plated,PTH,ComponentDrill
T2C0.600
; #@! TA.AperFunction,Plated,PTH,ComponentDrill
T3C1.700
%
G90
G05
T1
X52.5Y-105.0
X52.5Y-108.25
X52.5Y-109.25
X52.5Y-110.25
X52.5Y-111.25
X53.0Y-102.75
X53.0Y-112.75
X53.0Y-113.75
X53.0Y-114.75
X53.5Y-85.0
X54.0Y-116.5
X54.0Y-117.5
X54.25Y-101.5
X55.5Y-100.5
X56.5Y-115.25
X56.5Y-116.5
X57.5Y-78.0
X57.5Y-114.5
X57.5Y-115.75
X57.5Y-117.0
X59.25Y-79.75
X59.75Y-100.5
X60.45Y-109.7
X61.0Y-97.75
X61.25Y-117.75
X61.25Y-118.75
X61.5Y-102.5
X61.5Y-103.75
X61.75Y-109.5
X61.75Y-110.25
X62.5Y-103.75
X62.5Y-105.5
X62.75Y-112.25
X62.75Y-113.25
X62.75Y-114.25
X62.9Y-119.2
X63.25Y-97.75
X63.25Y-102.0
X64.5Y-77.6
X65.9Y-79.9
X66.5Y-119.25
X67.25Y-93.25
X67.4Y-88.0
X67.4Y-89.7
X67.5Y-96.25
X67.5Y-98.5
X67.5Y-110.2
X67.75Y-82.75
X67.75Y-84.75
X67.75Y-91.0
X68.6Y-88.0
X68.6Y-89.7
X69.25Y-91.0
X70.5Y-88.0
X70.9Y-88.8
X71.5Y-92.75
X72.75Y-92.0
X73.5Y-99.75
X74.0Y-92.0
X74.25Y-96.25
X77.1Y-67.65
X77.1Y-70.4
X77.5Y-72.5
X79.6Y-70.15
X83.6Y-142.3
X83.6Y-144.7
X85.0Y-142.3
X85.0Y-144.7
X90.0Y-142.3
X90.0Y-144.7
X91.4Y-142.3
X91.4Y-144.7
X92.0Y-124.5
X93.25Y-54.5
X93.75Y-62.25
X94.5Y-53.25
X95.5Y-55.25
X95.75Y-128.5
X96.5Y-129.25
X96.75Y-51.25
X97.35Y-141.35
X97.5Y-136.4
X97.5Y-137.1
X97.85Y-143.35
X98.35Y-142.35
X98.4Y-129.6
X98.75Y-55.0
X98.85Y-141.35
X99.25Y-132.0
X99.35Y-143.35
X99.85Y-142.35
X100.2Y-129.6
X100.25Y-51.0
X100.35Y-141.35
X100.75Y-132.0
X100.75Y-133.5
X100.85Y-143.35
X101.35Y-142.35
X101.75Y-53.0
X101.85Y-141.35
X102.1Y-136.4
X102.1Y-137.1
X102.25Y-130.5
X102.35Y-143.35
X103.75Y-54.75
X104.05Y-132.7
X105.0Y-51.0
X105.0Y-127.5
X106.0Y-126.0
X106.1Y-130.8
X107.25Y-54.0
X108.0Y-53.0
X108.0Y-129.0
X108.5Y-74.25
X108.6Y-142.3
X108.6Y-144.7
X108.75Y-54.0
X109.0Y-127.0
X109.25Y-75.0
X110.0Y-75.75
X110.0Y-124.0
X110.0Y-142.3
X110.0Y-144.7
X110.75Y-76.5
X111.5Y-59.75
X111.5Y-63.25
X111.5Y-66.0
X112.0Y-123.0
X113.25Y-61.25
X113.25Y-63.75
X113.25Y-65.5
X114.25Y-126.9
X114.25Y-127.9
X114.5Y-62.5
X114.928Y-69.322
X115.0Y-142.3
X115.0Y-144.7
X115.5Y-68.25
X116.0Y-126.9
X116.0Y-127.9
X116.0Y-131.0
X116.25Y-70.75
X116.4Y-142.3
X116.4Y-144.7
X116.5Y-64.75
X116.75Y-75.5
X117.1Y-125.6
X117.1Y-134.5
X117.25Y-69.0
X117.5Y-76.25
X118.0Y-120.0
X118.0Y-123.0
X118.0Y-126.0
X118.0Y-129.0
X118.0Y-131.0
X118.0Y-135.0
X118.25Y-77.0
X118.65Y-67.25
X119.0Y-77.75
X120.0Y-76.5
X120.0Y-77.5
X120.0Y-129.0
X120.25Y-73.5
X120.5Y-75.0
X120.9Y-127.5
X121.0Y-59.75
X121.0Y-79.25
X121.0Y-131.0
X121.4Y-124.2
X121.733Y-129.033
X121.8Y-132.0
X122.0Y-60.75
X122.25Y-71.5
X123.0Y-75.5
X123.0Y-78.25
X123.0Y-120.0
X123.0Y-131.0
X123.0Y-133.0
X123.1Y-124.8
X123.2Y-122.5
X123.5Y-127.5
X124.7Y-125.4
X125.0Y-122.5
X125.5Y-83.5
X125.5Y-104.75
X125.5Y-106.5
X125.75Y-89.0
X125.75Y-91.5
X125.75Y-94.0
X126.0Y-72.5
X126.0Y-123.1
X126.0Y-125.0
X126.2Y-78.6
X126.5Y-84.5
X126.75Y-99.75
X127.25Y-106.5
X128.0Y-83.25
X128.25Y-75.25
X128.3Y-64.6
X128.7Y-67.1
X128.9Y-75.9
X129.0Y-101.5
X129.0Y-117.0
X129.0Y-123.2
X129.25Y-83.25
X129.3Y-121.7
X129.6Y-120.7
X129.75Y-96.0
X129.75Y-97.25
X129.8Y-122.4
X130.0Y-126.1
X130.9Y-119.2
X131.0Y-120.0
X131.15Y-106.25
X131.25Y-104.75
X132.0Y-117.0
X132.25Y-110.5
X132.4Y-121.7
X132.45Y-87.825
X132.75Y-79.75
X133.0Y-101.5
X133.25Y-94.75
X133.25Y-104.0
X133.25Y-107.0
X133.5Y-100.5
X133.6Y-124.2
X134.1Y-119.4
X134.2Y-106.0
X134.25Y-103.766
X135.0Y-110.75
X135.25Y-98.25
X135.25Y-99.75
X136.2Y-121.5
X137.5Y-107.5
X137.5Y-116.75
X138.25Y-94.75
X139.75Y-104.25
X141.0Y-107.5
X143.75Y-92.75
T3
X70.005Y-113.046
X73.705Y-119.454
X74.335Y-110.546
X78.035Y-116.954
X96.3Y-67.5
X96.3Y-72.5
X103.7Y-67.5
X103.7Y-72.5
X121.965Y-116.954
X125.665Y-110.546
X126.295Y-119.454
X129.995Y-113.046
T2
X95.57Y-139.965G85X95.57Y-138.865
G05
X95.57Y-143.895G85X95.57Y-143.295
G05
X104.21Y-139.965G85X104.21Y-138.865
G05
X104.21Y-143.895G85X104.21Y-143.295
G05
T0
M30
