G04 #@! TF.GenerationSoftware,KiCad,Pcbnew,5.1.5+dfsg1-2build2*
G04 #@! TF.CreationDate,2020-11-14T14:52:44+01:00*
G04 #@! TF.ProjectId,camera-flash,63616d65-7261-42d6-966c-6173682e6b69,rev?*
G04 #@! TF.SameCoordinates,Original*
G04 #@! TF.FileFunction,Legend,Top*
G04 #@! TF.FilePolarity,Positive*
%FSLAX46Y46*%
G04 Gerber Fmt 4.6, Leading zero omitted, Abs format (unit mm)*
G04 Created by KiCad (PCBNEW 5.1.5+dfsg1-2build2) date 2020-11-14 14:52:44*
%MOMM*%
%LPD*%
G04 APERTURE LIST*
%ADD10C,0.150000*%
%ADD11C,0.200000*%
%ADD12C,0.120000*%
G04 APERTURE END LIST*
D10*
X56114285Y-99652380D02*
X56114285Y-100366666D01*
X56066666Y-100509523D01*
X55971428Y-100604761D01*
X55828571Y-100652380D01*
X55733333Y-100652380D01*
X57019047Y-100652380D02*
X57019047Y-100128571D01*
X56971428Y-100033333D01*
X56876190Y-99985714D01*
X56685714Y-99985714D01*
X56590476Y-100033333D01*
X57019047Y-100604761D02*
X56923809Y-100652380D01*
X56685714Y-100652380D01*
X56590476Y-100604761D01*
X56542857Y-100509523D01*
X56542857Y-100414285D01*
X56590476Y-100319047D01*
X56685714Y-100271428D01*
X56923809Y-100271428D01*
X57019047Y-100223809D01*
X57495238Y-99985714D02*
X57495238Y-100652380D01*
X57495238Y-100080952D02*
X57542857Y-100033333D01*
X57638095Y-99985714D01*
X57780952Y-99985714D01*
X57876190Y-100033333D01*
X57923809Y-100128571D01*
X57923809Y-100652380D01*
X59161904Y-100652380D02*
X59161904Y-99652380D01*
X59161904Y-100128571D02*
X59733333Y-100128571D01*
X59733333Y-100652380D02*
X59733333Y-99652380D01*
X60590476Y-100604761D02*
X60495238Y-100652380D01*
X60304761Y-100652380D01*
X60209523Y-100604761D01*
X60161904Y-100509523D01*
X60161904Y-100128571D01*
X60209523Y-100033333D01*
X60304761Y-99985714D01*
X60495238Y-99985714D01*
X60590476Y-100033333D01*
X60638095Y-100128571D01*
X60638095Y-100223809D01*
X60161904Y-100319047D01*
X61066666Y-99985714D02*
X61066666Y-100652380D01*
X61066666Y-100080952D02*
X61114285Y-100033333D01*
X61209523Y-99985714D01*
X61352380Y-99985714D01*
X61447619Y-100033333D01*
X61495238Y-100128571D01*
X61495238Y-100652380D01*
X61971428Y-100652380D02*
X61971428Y-99985714D01*
X61971428Y-100176190D02*
X62019047Y-100080952D01*
X62066666Y-100033333D01*
X62161904Y-99985714D01*
X62257142Y-99985714D01*
X62590476Y-100652380D02*
X62590476Y-99985714D01*
X62590476Y-99652380D02*
X62542857Y-99700000D01*
X62590476Y-99747619D01*
X62638095Y-99700000D01*
X62590476Y-99652380D01*
X62590476Y-99747619D01*
X63066666Y-100652380D02*
X63066666Y-99652380D01*
X63161904Y-100271428D02*
X63447619Y-100652380D01*
X63447619Y-99985714D02*
X63066666Y-100366666D01*
X64590476Y-99747619D02*
X64638095Y-99700000D01*
X64733333Y-99652380D01*
X64971428Y-99652380D01*
X65066666Y-99700000D01*
X65114285Y-99747619D01*
X65161904Y-99842857D01*
X65161904Y-99938095D01*
X65114285Y-100080952D01*
X64542857Y-100652380D01*
X65161904Y-100652380D01*
X65780952Y-99652380D02*
X65876190Y-99652380D01*
X65971428Y-99700000D01*
X66019047Y-99747619D01*
X66066666Y-99842857D01*
X66114285Y-100033333D01*
X66114285Y-100271428D01*
X66066666Y-100461904D01*
X66019047Y-100557142D01*
X65971428Y-100604761D01*
X65876190Y-100652380D01*
X65780952Y-100652380D01*
X65685714Y-100604761D01*
X65638095Y-100557142D01*
X65590476Y-100461904D01*
X65542857Y-100271428D01*
X65542857Y-100033333D01*
X65590476Y-99842857D01*
X65638095Y-99747619D01*
X65685714Y-99700000D01*
X65780952Y-99652380D01*
X66495238Y-99747619D02*
X66542857Y-99700000D01*
X66638095Y-99652380D01*
X66876190Y-99652380D01*
X66971428Y-99700000D01*
X67019047Y-99747619D01*
X67066666Y-99842857D01*
X67066666Y-99938095D01*
X67019047Y-100080952D01*
X66447619Y-100652380D01*
X67066666Y-100652380D01*
X67685714Y-99652380D02*
X67780952Y-99652380D01*
X67876190Y-99700000D01*
X67923809Y-99747619D01*
X67971428Y-99842857D01*
X68019047Y-100033333D01*
X68019047Y-100271428D01*
X67971428Y-100461904D01*
X67923809Y-100557142D01*
X67876190Y-100604761D01*
X67780952Y-100652380D01*
X67685714Y-100652380D01*
X67590476Y-100604761D01*
X67542857Y-100557142D01*
X67495238Y-100461904D01*
X67447619Y-100271428D01*
X67447619Y-100033333D01*
X67495238Y-99842857D01*
X67542857Y-99747619D01*
X67590476Y-99700000D01*
X67685714Y-99652380D01*
D11*
X53314285Y-93304761D02*
X54647619Y-93304761D01*
X53314285Y-95304761D01*
X54647619Y-95304761D01*
X55695238Y-95304761D02*
X55504761Y-95209523D01*
X55409523Y-95114285D01*
X55314285Y-94923809D01*
X55314285Y-94352380D01*
X55409523Y-94161904D01*
X55504761Y-94066666D01*
X55695238Y-93971428D01*
X55980952Y-93971428D01*
X56171428Y-94066666D01*
X56266666Y-94161904D01*
X56361904Y-94352380D01*
X56361904Y-94923809D01*
X56266666Y-95114285D01*
X56171428Y-95209523D01*
X55980952Y-95304761D01*
X55695238Y-95304761D01*
X57980952Y-95209523D02*
X57790476Y-95304761D01*
X57409523Y-95304761D01*
X57219047Y-95209523D01*
X57123809Y-95019047D01*
X57123809Y-94257142D01*
X57219047Y-94066666D01*
X57409523Y-93971428D01*
X57790476Y-93971428D01*
X57980952Y-94066666D01*
X58076190Y-94257142D01*
X58076190Y-94447619D01*
X57123809Y-94638095D01*
X58647619Y-93971428D02*
X59409523Y-93971428D01*
X58933333Y-93304761D02*
X58933333Y-95019047D01*
X59028571Y-95209523D01*
X59219047Y-95304761D01*
X59409523Y-95304761D01*
X60076190Y-95304761D02*
X60076190Y-93971428D01*
X60076190Y-94352380D02*
X60171428Y-94161904D01*
X60266666Y-94066666D01*
X60457142Y-93971428D01*
X60647619Y-93971428D01*
X61600000Y-95304761D02*
X61409523Y-95209523D01*
X61314285Y-95114285D01*
X61219047Y-94923809D01*
X61219047Y-94352380D01*
X61314285Y-94161904D01*
X61409523Y-94066666D01*
X61600000Y-93971428D01*
X61885714Y-93971428D01*
X62076190Y-94066666D01*
X62171428Y-94161904D01*
X62266666Y-94352380D01*
X62266666Y-94923809D01*
X62171428Y-95114285D01*
X62076190Y-95209523D01*
X61885714Y-95304761D01*
X61600000Y-95304761D01*
X63123809Y-93971428D02*
X63123809Y-95971428D01*
X63123809Y-94066666D02*
X63314285Y-93971428D01*
X63695238Y-93971428D01*
X63885714Y-94066666D01*
X63980952Y-94161904D01*
X64076190Y-94352380D01*
X64076190Y-94923809D01*
X63980952Y-95114285D01*
X63885714Y-95209523D01*
X63695238Y-95304761D01*
X63314285Y-95304761D01*
X63123809Y-95209523D01*
X65695238Y-95209523D02*
X65504761Y-95304761D01*
X65123809Y-95304761D01*
X64933333Y-95209523D01*
X64838095Y-95019047D01*
X64838095Y-94257142D01*
X64933333Y-94066666D01*
X65123809Y-93971428D01*
X65504761Y-93971428D01*
X65695238Y-94066666D01*
X65790476Y-94257142D01*
X65790476Y-94447619D01*
X64838095Y-94638095D01*
X61695238Y-97742857D02*
X63219047Y-97742857D01*
X64838095Y-97457142D02*
X64171428Y-97457142D01*
X64171428Y-98504761D02*
X64171428Y-96504761D01*
X65123809Y-96504761D01*
X66171428Y-98504761D02*
X65980952Y-98409523D01*
X65885714Y-98219047D01*
X65885714Y-96504761D01*
X67790476Y-98504761D02*
X67790476Y-97457142D01*
X67695238Y-97266666D01*
X67504761Y-97171428D01*
X67123809Y-97171428D01*
X66933333Y-97266666D01*
X67790476Y-98409523D02*
X67600000Y-98504761D01*
X67123809Y-98504761D01*
X66933333Y-98409523D01*
X66838095Y-98219047D01*
X66838095Y-98028571D01*
X66933333Y-97838095D01*
X67123809Y-97742857D01*
X67600000Y-97742857D01*
X67790476Y-97647619D01*
X68647619Y-98409523D02*
X68838095Y-98504761D01*
X69219047Y-98504761D01*
X69409523Y-98409523D01*
X69504761Y-98219047D01*
X69504761Y-98123809D01*
X69409523Y-97933333D01*
X69219047Y-97838095D01*
X68933333Y-97838095D01*
X68742857Y-97742857D01*
X68647619Y-97552380D01*
X68647619Y-97457142D01*
X68742857Y-97266666D01*
X68933333Y-97171428D01*
X69219047Y-97171428D01*
X69409523Y-97266666D01*
X70361904Y-98504761D02*
X70361904Y-96504761D01*
X71219047Y-98504761D02*
X71219047Y-97457142D01*
X71123809Y-97266666D01*
X70933333Y-97171428D01*
X70647619Y-97171428D01*
X70457142Y-97266666D01*
X70361904Y-97361904D01*
D10*
X137966666Y-72328571D02*
X137204761Y-72328571D01*
X137585714Y-71947619D02*
X137585714Y-72709523D01*
X131395238Y-72328571D02*
X130633333Y-72328571D01*
D12*
X136999999Y-71800001D02*
X136900000Y-71350000D01*
X131600001Y-71800001D02*
X132025000Y-71725000D01*
X136999999Y-71800001D02*
X136575000Y-71775000D01*
X131600000Y-71800000D02*
X131750000Y-71350000D01*
X131600001Y-71800001D02*
G75*
G02X136999999Y-71800001I2699999J-2699999D01*
G01*
D10*
X133466666Y-89228571D02*
X132704761Y-89228571D01*
X133085714Y-88847619D02*
X133085714Y-89609523D01*
X126895238Y-89228571D02*
X126133333Y-89228571D01*
X144366666Y-109628571D02*
X143604761Y-109628571D01*
X143985714Y-109247619D02*
X143985714Y-110009523D01*
X137795238Y-109628571D02*
X137033333Y-109628571D01*
X77766666Y-71128571D02*
X77004761Y-71128571D01*
X77385714Y-70747619D02*
X77385714Y-71509523D01*
X71195238Y-71128571D02*
X70433333Y-71128571D01*
D12*
X71400001Y-70600001D02*
X71550001Y-70150001D01*
X71400002Y-70600002D02*
X71825001Y-70525001D01*
X76799999Y-70600001D02*
X76375000Y-70575000D01*
X71400001Y-70600001D02*
G75*
G02X76799999Y-70600001I2699999J-2699999D01*
G01*
X76799999Y-70600001D02*
X76700000Y-70150000D01*
X138000000Y-109100000D02*
X138150000Y-108650000D01*
X138000001Y-109100001D02*
X138425000Y-109025000D01*
X143399999Y-109100001D02*
X142975000Y-109075000D01*
X138000001Y-109100001D02*
G75*
G02X143399999Y-109100001I2699999J-2699999D01*
G01*
X143399999Y-109100001D02*
X143300000Y-108650000D01*
X132499999Y-88700001D02*
X132075000Y-88675000D01*
X132499999Y-88700001D02*
X132400000Y-88250000D01*
X127100001Y-88700001D02*
X127525000Y-88625000D01*
X127100000Y-88700000D02*
X127250000Y-88250000D01*
X127100001Y-88700001D02*
G75*
G02X132499999Y-88700001I2699999J-2699999D01*
G01*
X77200000Y-73300000D02*
G75*
G03X77200000Y-73300000I-3100000J0D01*
G01*
X143800000Y-111800000D02*
G75*
G03X143800000Y-111800000I-3100000J0D01*
G01*
X137400000Y-74500000D02*
G75*
G03X137400000Y-74500000I-3100000J0D01*
G01*
X132900000Y-91400000D02*
G75*
G03X132900000Y-91400000I-3100000J0D01*
G01*
X147600000Y-93500000D02*
X136400000Y-93500000D01*
X136400000Y-101900000D02*
X147600000Y-101900000D01*
X136400000Y-93500000D02*
X136400000Y-101900000D01*
X147600000Y-93500000D02*
X147600000Y-101900000D01*
X117100000Y-130300000D02*
X105900000Y-130300000D01*
X105900000Y-138700000D02*
X117100000Y-138700000D01*
X105900000Y-130300000D02*
X105900000Y-138700000D01*
X117100000Y-130300000D02*
X117100000Y-138700000D01*
X93700000Y-130300000D02*
X93700000Y-138700000D01*
X82500000Y-138700000D02*
X93700000Y-138700000D01*
X82500000Y-130300000D02*
X82500000Y-138700000D01*
X93700000Y-130300000D02*
X82500000Y-130300000D01*
X114400000Y-141600000D02*
X110600000Y-141600000D01*
X110600000Y-145400000D02*
X114400000Y-145400000D01*
X110600000Y-141600000D02*
X110600000Y-145400000D01*
X114400000Y-145400000D02*
X114400000Y-141600000D01*
X89400000Y-141600000D02*
X85600000Y-141600000D01*
X89400000Y-145400000D02*
X89400000Y-141600000D01*
X85600000Y-145400000D02*
X89400000Y-145400000D01*
X85600000Y-141600000D02*
X85600000Y-145400000D01*
D10*
X83295238Y-138161904D02*
X83295238Y-137361904D01*
X83485714Y-137361904D01*
X83600000Y-137400000D01*
X83676190Y-137476190D01*
X83714285Y-137552380D01*
X83752380Y-137704761D01*
X83752380Y-137819047D01*
X83714285Y-137971428D01*
X83676190Y-138047619D01*
X83600000Y-138123809D01*
X83485714Y-138161904D01*
X83295238Y-138161904D01*
X84095238Y-137742857D02*
X84361904Y-137742857D01*
X84476190Y-138161904D02*
X84095238Y-138161904D01*
X84095238Y-137361904D01*
X84476190Y-137361904D01*
X85200000Y-138161904D02*
X84819047Y-138161904D01*
X84819047Y-137361904D01*
X85428571Y-137933333D02*
X85809523Y-137933333D01*
X85352380Y-138161904D02*
X85619047Y-137361904D01*
X85885714Y-138161904D01*
X86304761Y-137780952D02*
X86304761Y-138161904D01*
X86038095Y-137361904D02*
X86304761Y-137780952D01*
X86571428Y-137361904D01*
X86838095Y-137742857D02*
X87104761Y-137742857D01*
X87219047Y-138161904D02*
X86838095Y-138161904D01*
X86838095Y-137361904D01*
X87219047Y-137361904D01*
X87561904Y-138161904D02*
X87561904Y-137361904D01*
X87752380Y-137361904D01*
X87866666Y-137400000D01*
X87942857Y-137476190D01*
X87980952Y-137552380D01*
X88019047Y-137704761D01*
X88019047Y-137819047D01*
X87980952Y-137971428D01*
X87942857Y-138047619D01*
X87866666Y-138123809D01*
X87752380Y-138161904D01*
X87561904Y-138161904D01*
X88971428Y-138161904D02*
X88971428Y-137361904D01*
X89161904Y-137361904D01*
X89276190Y-137400000D01*
X89352380Y-137476190D01*
X89390476Y-137552380D01*
X89428571Y-137704761D01*
X89428571Y-137819047D01*
X89390476Y-137971428D01*
X89352380Y-138047619D01*
X89276190Y-138123809D01*
X89161904Y-138161904D01*
X88971428Y-138161904D01*
X89771428Y-138161904D02*
X89771428Y-137361904D01*
X90609523Y-138161904D02*
X90342857Y-137780952D01*
X90152380Y-138161904D02*
X90152380Y-137361904D01*
X90457142Y-137361904D01*
X90533333Y-137400000D01*
X90571428Y-137438095D01*
X90609523Y-137514285D01*
X90609523Y-137628571D01*
X90571428Y-137704761D01*
X90533333Y-137742857D01*
X90457142Y-137780952D01*
X90152380Y-137780952D01*
X90952380Y-137742857D02*
X91219047Y-137742857D01*
X91333333Y-138161904D02*
X90952380Y-138161904D01*
X90952380Y-137361904D01*
X91333333Y-137361904D01*
X92133333Y-138085714D02*
X92095238Y-138123809D01*
X91980952Y-138161904D01*
X91904761Y-138161904D01*
X91790476Y-138123809D01*
X91714285Y-138047619D01*
X91676190Y-137971428D01*
X91638095Y-137819047D01*
X91638095Y-137704761D01*
X91676190Y-137552380D01*
X91714285Y-137476190D01*
X91790476Y-137400000D01*
X91904761Y-137361904D01*
X91980952Y-137361904D01*
X92095238Y-137400000D01*
X92133333Y-137438095D01*
X92361904Y-137361904D02*
X92819047Y-137361904D01*
X92590476Y-138161904D02*
X92590476Y-137361904D01*
X85795238Y-130852380D02*
X85985714Y-130852380D01*
X86080952Y-130900000D01*
X86176190Y-130995238D01*
X86223809Y-131185714D01*
X86223809Y-131519047D01*
X86176190Y-131709523D01*
X86080952Y-131804761D01*
X85985714Y-131852380D01*
X85795238Y-131852380D01*
X85700000Y-131804761D01*
X85604761Y-131709523D01*
X85557142Y-131519047D01*
X85557142Y-131185714D01*
X85604761Y-130995238D01*
X85700000Y-130900000D01*
X85795238Y-130852380D01*
X86652380Y-130852380D02*
X86652380Y-131661904D01*
X86700000Y-131757142D01*
X86747619Y-131804761D01*
X86842857Y-131852380D01*
X87033333Y-131852380D01*
X87128571Y-131804761D01*
X87176190Y-131757142D01*
X87223809Y-131661904D01*
X87223809Y-130852380D01*
X87557142Y-130852380D02*
X88128571Y-130852380D01*
X87842857Y-131852380D02*
X87842857Y-130852380D01*
X88461904Y-131852380D02*
X88461904Y-130852380D01*
X88842857Y-130852380D01*
X88938095Y-130900000D01*
X88985714Y-130947619D01*
X89033333Y-131042857D01*
X89033333Y-131185714D01*
X88985714Y-131280952D01*
X88938095Y-131328571D01*
X88842857Y-131376190D01*
X88461904Y-131376190D01*
X89461904Y-130852380D02*
X89461904Y-131661904D01*
X89509523Y-131757142D01*
X89557142Y-131804761D01*
X89652380Y-131852380D01*
X89842857Y-131852380D01*
X89938095Y-131804761D01*
X89985714Y-131757142D01*
X90033333Y-131661904D01*
X90033333Y-130852380D01*
X90366666Y-130852380D02*
X90938095Y-130852380D01*
X90652380Y-131852380D02*
X90652380Y-130852380D01*
X70100000Y-66503571D02*
X70242857Y-66551190D01*
X70290476Y-66598809D01*
X70338095Y-66694047D01*
X70338095Y-66836904D01*
X70290476Y-66932142D01*
X70242857Y-66979761D01*
X70147619Y-67027380D01*
X69766666Y-67027380D01*
X69766666Y-66027380D01*
X70100000Y-66027380D01*
X70195238Y-66075000D01*
X70242857Y-66122619D01*
X70290476Y-66217857D01*
X70290476Y-66313095D01*
X70242857Y-66408333D01*
X70195238Y-66455952D01*
X70100000Y-66503571D01*
X69766666Y-66503571D01*
X71338095Y-67027380D02*
X71004761Y-66551190D01*
X70766666Y-67027380D02*
X70766666Y-66027380D01*
X71147619Y-66027380D01*
X71242857Y-66075000D01*
X71290476Y-66122619D01*
X71338095Y-66217857D01*
X71338095Y-66360714D01*
X71290476Y-66455952D01*
X71242857Y-66503571D01*
X71147619Y-66551190D01*
X70766666Y-66551190D01*
X71766666Y-67027380D02*
X71766666Y-66027380D01*
X72766666Y-66075000D02*
X72671428Y-66027380D01*
X72528571Y-66027380D01*
X72385714Y-66075000D01*
X72290476Y-66170238D01*
X72242857Y-66265476D01*
X72195238Y-66455952D01*
X72195238Y-66598809D01*
X72242857Y-66789285D01*
X72290476Y-66884523D01*
X72385714Y-66979761D01*
X72528571Y-67027380D01*
X72623809Y-67027380D01*
X72766666Y-66979761D01*
X72814285Y-66932142D01*
X72814285Y-66598809D01*
X72623809Y-66598809D01*
X73242857Y-67027380D02*
X73242857Y-66027380D01*
X73242857Y-66503571D02*
X73814285Y-66503571D01*
X73814285Y-67027380D02*
X73814285Y-66027380D01*
X74147619Y-66027380D02*
X74719047Y-66027380D01*
X74433333Y-67027380D02*
X74433333Y-66027380D01*
X75052380Y-67027380D02*
X75052380Y-66027380D01*
X75623809Y-67027380D01*
X75623809Y-66027380D01*
X76100000Y-66503571D02*
X76433333Y-66503571D01*
X76576190Y-67027380D02*
X76100000Y-67027380D01*
X76100000Y-66027380D01*
X76576190Y-66027380D01*
X76957142Y-66979761D02*
X77100000Y-67027380D01*
X77338095Y-67027380D01*
X77433333Y-66979761D01*
X77480952Y-66932142D01*
X77528571Y-66836904D01*
X77528571Y-66741666D01*
X77480952Y-66646428D01*
X77433333Y-66598809D01*
X77338095Y-66551190D01*
X77147619Y-66503571D01*
X77052380Y-66455952D01*
X77004761Y-66408333D01*
X76957142Y-66313095D01*
X76957142Y-66217857D01*
X77004761Y-66122619D01*
X77052380Y-66075000D01*
X77147619Y-66027380D01*
X77385714Y-66027380D01*
X77528571Y-66075000D01*
X77909523Y-66979761D02*
X78052380Y-67027380D01*
X78290476Y-67027380D01*
X78385714Y-66979761D01*
X78433333Y-66932142D01*
X78480952Y-66836904D01*
X78480952Y-66741666D01*
X78433333Y-66646428D01*
X78385714Y-66598809D01*
X78290476Y-66551190D01*
X78100000Y-66503571D01*
X78004761Y-66455952D01*
X77957142Y-66408333D01*
X77909523Y-66313095D01*
X77909523Y-66217857D01*
X77957142Y-66122619D01*
X78004761Y-66075000D01*
X78100000Y-66027380D01*
X78338095Y-66027380D01*
X78480952Y-66075000D01*
X73100000Y-67677380D02*
X73338095Y-68677380D01*
X73528571Y-67963095D01*
X73719047Y-68677380D01*
X73957142Y-67677380D01*
X74242857Y-67677380D02*
X74480952Y-68677380D01*
X74671428Y-67963095D01*
X74861904Y-68677380D01*
X75100000Y-67677380D01*
X130200000Y-79003571D02*
X130342857Y-79051190D01*
X130390476Y-79098809D01*
X130438095Y-79194047D01*
X130438095Y-79336904D01*
X130390476Y-79432142D01*
X130342857Y-79479761D01*
X130247619Y-79527380D01*
X129866666Y-79527380D01*
X129866666Y-78527380D01*
X130200000Y-78527380D01*
X130295238Y-78575000D01*
X130342857Y-78622619D01*
X130390476Y-78717857D01*
X130390476Y-78813095D01*
X130342857Y-78908333D01*
X130295238Y-78955952D01*
X130200000Y-79003571D01*
X129866666Y-79003571D01*
X131438095Y-79527380D02*
X131104761Y-79051190D01*
X130866666Y-79527380D02*
X130866666Y-78527380D01*
X131247619Y-78527380D01*
X131342857Y-78575000D01*
X131390476Y-78622619D01*
X131438095Y-78717857D01*
X131438095Y-78860714D01*
X131390476Y-78955952D01*
X131342857Y-79003571D01*
X131247619Y-79051190D01*
X130866666Y-79051190D01*
X131866666Y-79527380D02*
X131866666Y-78527380D01*
X132866666Y-78575000D02*
X132771428Y-78527380D01*
X132628571Y-78527380D01*
X132485714Y-78575000D01*
X132390476Y-78670238D01*
X132342857Y-78765476D01*
X132295238Y-78955952D01*
X132295238Y-79098809D01*
X132342857Y-79289285D01*
X132390476Y-79384523D01*
X132485714Y-79479761D01*
X132628571Y-79527380D01*
X132723809Y-79527380D01*
X132866666Y-79479761D01*
X132914285Y-79432142D01*
X132914285Y-79098809D01*
X132723809Y-79098809D01*
X133342857Y-79527380D02*
X133342857Y-78527380D01*
X133342857Y-79003571D02*
X133914285Y-79003571D01*
X133914285Y-79527380D02*
X133914285Y-78527380D01*
X134247619Y-78527380D02*
X134819047Y-78527380D01*
X134533333Y-79527380D02*
X134533333Y-78527380D01*
X135152380Y-79527380D02*
X135152380Y-78527380D01*
X135723809Y-79527380D01*
X135723809Y-78527380D01*
X136200000Y-79003571D02*
X136533333Y-79003571D01*
X136676190Y-79527380D02*
X136200000Y-79527380D01*
X136200000Y-78527380D01*
X136676190Y-78527380D01*
X137057142Y-79479761D02*
X137200000Y-79527380D01*
X137438095Y-79527380D01*
X137533333Y-79479761D01*
X137580952Y-79432142D01*
X137628571Y-79336904D01*
X137628571Y-79241666D01*
X137580952Y-79146428D01*
X137533333Y-79098809D01*
X137438095Y-79051190D01*
X137247619Y-79003571D01*
X137152380Y-78955952D01*
X137104761Y-78908333D01*
X137057142Y-78813095D01*
X137057142Y-78717857D01*
X137104761Y-78622619D01*
X137152380Y-78575000D01*
X137247619Y-78527380D01*
X137485714Y-78527380D01*
X137628571Y-78575000D01*
X138009523Y-79479761D02*
X138152380Y-79527380D01*
X138390476Y-79527380D01*
X138485714Y-79479761D01*
X138533333Y-79432142D01*
X138580952Y-79336904D01*
X138580952Y-79241666D01*
X138533333Y-79146428D01*
X138485714Y-79098809D01*
X138390476Y-79051190D01*
X138200000Y-79003571D01*
X138104761Y-78955952D01*
X138057142Y-78908333D01*
X138009523Y-78813095D01*
X138009523Y-78717857D01*
X138057142Y-78622619D01*
X138104761Y-78575000D01*
X138200000Y-78527380D01*
X138438095Y-78527380D01*
X138580952Y-78575000D01*
X133938095Y-81082142D02*
X133890476Y-81129761D01*
X133747619Y-81177380D01*
X133652380Y-81177380D01*
X133509523Y-81129761D01*
X133414285Y-81034523D01*
X133366666Y-80939285D01*
X133319047Y-80748809D01*
X133319047Y-80605952D01*
X133366666Y-80415476D01*
X133414285Y-80320238D01*
X133509523Y-80225000D01*
X133652380Y-80177380D01*
X133747619Y-80177380D01*
X133890476Y-80225000D01*
X133938095Y-80272619D01*
X134271428Y-80177380D02*
X134509523Y-81177380D01*
X134700000Y-80463095D01*
X134890476Y-81177380D01*
X135128571Y-80177380D01*
X127942857Y-86185714D02*
X128323809Y-86185714D01*
X128085714Y-85852380D02*
X128085714Y-86709523D01*
X128133333Y-86804761D01*
X128228571Y-86852380D01*
X128323809Y-86852380D01*
X128657142Y-86471428D02*
X129419047Y-86471428D01*
X130085714Y-85852380D02*
X130276190Y-85852380D01*
X130371428Y-85900000D01*
X130466666Y-85995238D01*
X130514285Y-86185714D01*
X130514285Y-86519047D01*
X130466666Y-86709523D01*
X130371428Y-86804761D01*
X130276190Y-86852380D01*
X130085714Y-86852380D01*
X129990476Y-86804761D01*
X129895238Y-86709523D01*
X129847619Y-86519047D01*
X129847619Y-86185714D01*
X129895238Y-85995238D01*
X129990476Y-85900000D01*
X130085714Y-85852380D01*
X130942857Y-86852380D02*
X130942857Y-85852380D01*
X131514285Y-86852380D01*
X131514285Y-85852380D01*
X138723809Y-107252380D02*
X138723809Y-106252380D01*
X138961904Y-106252380D01*
X139104761Y-106300000D01*
X139200000Y-106395238D01*
X139247619Y-106490476D01*
X139295238Y-106680952D01*
X139295238Y-106823809D01*
X139247619Y-107014285D01*
X139200000Y-107109523D01*
X139104761Y-107204761D01*
X138961904Y-107252380D01*
X138723809Y-107252380D01*
X139723809Y-106728571D02*
X140057142Y-106728571D01*
X140200000Y-107252380D02*
X139723809Y-107252380D01*
X139723809Y-106252380D01*
X140200000Y-106252380D01*
X141104761Y-107252380D02*
X140628571Y-107252380D01*
X140628571Y-106252380D01*
X141390476Y-106966666D02*
X141866666Y-106966666D01*
X141295238Y-107252380D02*
X141628571Y-106252380D01*
X141961904Y-107252380D01*
X142485714Y-106776190D02*
X142485714Y-107252380D01*
X142152380Y-106252380D02*
X142485714Y-106776190D01*
X142819047Y-106252380D01*
X109938095Y-138252380D02*
X109938095Y-137490476D01*
X109747619Y-137680952D02*
X109938095Y-137490476D01*
X110128571Y-137680952D01*
X113461904Y-137490476D02*
X113461904Y-138252380D01*
X113652380Y-138061904D02*
X113461904Y-138252380D01*
X113271428Y-138061904D01*
X139619047Y-100452380D02*
X139809523Y-100452380D01*
X139904761Y-100500000D01*
X140000000Y-100595238D01*
X140047619Y-100785714D01*
X140047619Y-101119047D01*
X140000000Y-101309523D01*
X139904761Y-101404761D01*
X139809523Y-101452380D01*
X139619047Y-101452380D01*
X139523809Y-101404761D01*
X139428571Y-101309523D01*
X139380952Y-101119047D01*
X139380952Y-100785714D01*
X139428571Y-100595238D01*
X139523809Y-100500000D01*
X139619047Y-100452380D01*
X140809523Y-100928571D02*
X140476190Y-100928571D01*
X140476190Y-101452380D02*
X140476190Y-100452380D01*
X140952380Y-100452380D01*
X141666666Y-100928571D02*
X141333333Y-100928571D01*
X141333333Y-101452380D02*
X141333333Y-100452380D01*
X141809523Y-100452380D01*
X143142857Y-100452380D02*
X143333333Y-100452380D01*
X143428571Y-100500000D01*
X143523809Y-100595238D01*
X143571428Y-100785714D01*
X143571428Y-101119047D01*
X143523809Y-101309523D01*
X143428571Y-101404761D01*
X143333333Y-101452380D01*
X143142857Y-101452380D01*
X143047619Y-101404761D01*
X142952380Y-101309523D01*
X142904761Y-101119047D01*
X142904761Y-100785714D01*
X142952380Y-100595238D01*
X143047619Y-100500000D01*
X143142857Y-100452380D01*
X144000000Y-101452380D02*
X144000000Y-100452380D01*
X144571428Y-101452380D01*
X144571428Y-100452380D01*
X140023809Y-95252380D02*
X140023809Y-94252380D01*
X140261904Y-94252380D01*
X140404761Y-94300000D01*
X140500000Y-94395238D01*
X140547619Y-94490476D01*
X140595238Y-94680952D01*
X140595238Y-94823809D01*
X140547619Y-95014285D01*
X140500000Y-95109523D01*
X140404761Y-95204761D01*
X140261904Y-95252380D01*
X140023809Y-95252380D01*
X141023809Y-94728571D02*
X141357142Y-94728571D01*
X141500000Y-95252380D02*
X141023809Y-95252380D01*
X141023809Y-94252380D01*
X141500000Y-94252380D01*
X142404761Y-95252380D02*
X141928571Y-95252380D01*
X141928571Y-94252380D01*
X142690476Y-94966666D02*
X143166666Y-94966666D01*
X142595238Y-95252380D02*
X142928571Y-94252380D01*
X143261904Y-95252380D01*
X143785714Y-94776190D02*
X143785714Y-95252380D01*
X143452380Y-94252380D02*
X143785714Y-94776190D01*
X144119047Y-94252380D01*
X108723809Y-131052380D02*
X109295238Y-131052380D01*
X109009523Y-132052380D02*
X109009523Y-131052380D01*
X110200000Y-132052380D02*
X109866666Y-131576190D01*
X109628571Y-132052380D02*
X109628571Y-131052380D01*
X110009523Y-131052380D01*
X110104761Y-131100000D01*
X110152380Y-131147619D01*
X110200000Y-131242857D01*
X110200000Y-131385714D01*
X110152380Y-131480952D01*
X110104761Y-131528571D01*
X110009523Y-131576190D01*
X109628571Y-131576190D01*
X110628571Y-132052380D02*
X110628571Y-131052380D01*
X111628571Y-131100000D02*
X111533333Y-131052380D01*
X111390476Y-131052380D01*
X111247619Y-131100000D01*
X111152380Y-131195238D01*
X111104761Y-131290476D01*
X111057142Y-131480952D01*
X111057142Y-131623809D01*
X111104761Y-131814285D01*
X111152380Y-131909523D01*
X111247619Y-132004761D01*
X111390476Y-132052380D01*
X111485714Y-132052380D01*
X111628571Y-132004761D01*
X111676190Y-131957142D01*
X111676190Y-131623809D01*
X111485714Y-131623809D01*
X112628571Y-131100000D02*
X112533333Y-131052380D01*
X112390476Y-131052380D01*
X112247619Y-131100000D01*
X112152380Y-131195238D01*
X112104761Y-131290476D01*
X112057142Y-131480952D01*
X112057142Y-131623809D01*
X112104761Y-131814285D01*
X112152380Y-131909523D01*
X112247619Y-132004761D01*
X112390476Y-132052380D01*
X112485714Y-132052380D01*
X112628571Y-132004761D01*
X112676190Y-131957142D01*
X112676190Y-131623809D01*
X112485714Y-131623809D01*
X113104761Y-131528571D02*
X113438095Y-131528571D01*
X113580952Y-132052380D02*
X113104761Y-132052380D01*
X113104761Y-131052380D01*
X113580952Y-131052380D01*
X114580952Y-132052380D02*
X114247619Y-131576190D01*
X114009523Y-132052380D02*
X114009523Y-131052380D01*
X114390476Y-131052380D01*
X114485714Y-131100000D01*
X114533333Y-131147619D01*
X114580952Y-131242857D01*
X114580952Y-131385714D01*
X114533333Y-131480952D01*
X114485714Y-131528571D01*
X114390476Y-131576190D01*
X114009523Y-131576190D01*
X86400000Y-142127380D02*
X86590476Y-142127380D01*
X86685714Y-142175000D01*
X86780952Y-142270238D01*
X86828571Y-142460714D01*
X86828571Y-142794047D01*
X86780952Y-142984523D01*
X86685714Y-143079761D01*
X86590476Y-143127380D01*
X86400000Y-143127380D01*
X86304761Y-143079761D01*
X86209523Y-142984523D01*
X86161904Y-142794047D01*
X86161904Y-142460714D01*
X86209523Y-142270238D01*
X86304761Y-142175000D01*
X86400000Y-142127380D01*
X87257142Y-142127380D02*
X87257142Y-142936904D01*
X87304761Y-143032142D01*
X87352380Y-143079761D01*
X87447619Y-143127380D01*
X87638095Y-143127380D01*
X87733333Y-143079761D01*
X87780952Y-143032142D01*
X87828571Y-142936904D01*
X87828571Y-142127380D01*
X88161904Y-142127380D02*
X88733333Y-142127380D01*
X88447619Y-143127380D02*
X88447619Y-142127380D01*
X86019047Y-144396428D02*
X86780952Y-144396428D01*
X86400000Y-144777380D02*
X86400000Y-144015476D01*
X88019047Y-144396428D02*
X88780952Y-144396428D01*
X111876190Y-143127380D02*
X111876190Y-142127380D01*
X112352380Y-143127380D02*
X112352380Y-142127380D01*
X112923809Y-143127380D01*
X112923809Y-142127380D01*
X111019047Y-144396428D02*
X111780952Y-144396428D01*
X113019047Y-144396428D02*
X113780952Y-144396428D01*
X113400000Y-144777380D02*
X113400000Y-144015476D01*
X97133333Y-128452380D02*
X97133333Y-127452380D01*
X97514285Y-127452380D01*
X97609523Y-127500000D01*
X97657142Y-127547619D01*
X97704761Y-127642857D01*
X97704761Y-127785714D01*
X97657142Y-127880952D01*
X97609523Y-127928571D01*
X97514285Y-127976190D01*
X97133333Y-127976190D01*
X98133333Y-128452380D02*
X98133333Y-127452380D01*
X98371428Y-127452380D01*
X98514285Y-127500000D01*
X98609523Y-127595238D01*
X98657142Y-127690476D01*
X98704761Y-127880952D01*
X98704761Y-128023809D01*
X98657142Y-128214285D01*
X98609523Y-128309523D01*
X98514285Y-128404761D01*
X98371428Y-128452380D01*
X98133333Y-128452380D01*
X100085714Y-127452380D02*
X100276190Y-127452380D01*
X100371428Y-127500000D01*
X100466666Y-127595238D01*
X100514285Y-127785714D01*
X100514285Y-128119047D01*
X100466666Y-128309523D01*
X100371428Y-128404761D01*
X100276190Y-128452380D01*
X100085714Y-128452380D01*
X99990476Y-128404761D01*
X99895238Y-128309523D01*
X99847619Y-128119047D01*
X99847619Y-127785714D01*
X99895238Y-127595238D01*
X99990476Y-127500000D01*
X100085714Y-127452380D01*
X100942857Y-128452380D02*
X100942857Y-127452380D01*
X101514285Y-128452380D02*
X101085714Y-127880952D01*
X101514285Y-127452380D02*
X100942857Y-128023809D01*
D12*
X96600000Y-126800000D02*
X96600000Y-129200000D01*
X104300000Y-126800000D02*
X96600000Y-126800000D01*
X104300000Y-129200000D02*
X96600000Y-129200000D01*
X104300000Y-126800000D02*
X104300000Y-129200000D01*
M02*
