G04 #@! TF.GenerationSoftware,KiCad,Pcbnew,6.0.0-d3dd2cf0fa~116~ubuntu20.04.1*
G04 #@! TF.CreationDate,2022-01-19T00:36:28+01:00*
G04 #@! TF.ProjectId,camera-flash,63616d65-7261-42d6-966c-6173682e6b69,rev?*
G04 #@! TF.SameCoordinates,Original*
G04 #@! TF.FileFunction,Soldermask,Bot*
G04 #@! TF.FilePolarity,Negative*
%FSLAX46Y46*%
G04 Gerber Fmt 4.6, Leading zero omitted, Abs format (unit mm)*
G04 Created by KiCad (PCBNEW 6.0.0-d3dd2cf0fa~116~ubuntu20.04.1) date 2022-01-19 00:36:28*
%MOMM*%
%LPD*%
G01*
G04 APERTURE LIST*
G04 Aperture macros list*
%AMRoundRect*
0 Rectangle with rounded corners*
0 $1 Rounding radius*
0 $2 $3 $4 $5 $6 $7 $8 $9 X,Y pos of 4 corners*
0 Add a 4 corners polygon primitive as box body*
4,1,4,$2,$3,$4,$5,$6,$7,$8,$9,$2,$3,0*
0 Add four circle primitives for the rounded corners*
1,1,$1+$1,$2,$3*
1,1,$1+$1,$4,$5*
1,1,$1+$1,$6,$7*
1,1,$1+$1,$8,$9*
0 Add four rect primitives between the rounded corners*
20,1,$1+$1,$2,$3,$4,$5,0*
20,1,$1+$1,$4,$5,$6,$7,0*
20,1,$1+$1,$6,$7,$8,$9,0*
20,1,$1+$1,$8,$9,$2,$3,0*%
%AMRotRect*
0 Rectangle, with rotation*
0 The origin of the aperture is its center*
0 $1 length*
0 $2 width*
0 $3 Rotation angle, in degrees counterclockwise*
0 Add horizontal line*
21,1,$1,$2,0,0,$3*%
%AMOutline4P*
0 Free polygon, 4 corners , with rotation*
0 The origin of the aperture is its center*
0 number of corners: always 4*
0 $1 to $8 corner X, Y*
0 $9 Rotation angle, in degrees counterclockwise*
0 create outline with 4 corners*
4,1,4,$1,$2,$3,$4,$5,$6,$7,$8,$1,$2,$9*%
G04 Aperture macros list end*
%ADD10R,0.600000X0.900000*%
%ADD11C,3.000000*%
%ADD12C,3.100000*%
%ADD13C,2.000000*%
%ADD14RotRect,1.800000X2.000000X315.000000*%
%ADD15RotRect,1.800000X2.000000X135.000000*%
%ADD16RotRect,1.800000X2.000000X10.000000*%
%ADD17RotRect,1.800000X2.000000X190.000000*%
%ADD18RotRect,1.800000X2.000000X225.000000*%
%ADD19RotRect,1.800000X2.000000X45.000000*%
%ADD20R,1.100000X1.100000*%
%ADD21RotRect,1.100000X1.100000X135.000000*%
%ADD22RoundRect,0.150000X0.150000X-0.725000X0.150000X0.725000X-0.150000X0.725000X-0.150000X-0.725000X0*%
%ADD23RoundRect,0.150000X0.618718X-0.406586X-0.406586X0.618718X-0.618718X0.406586X0.406586X-0.618718X0*%
%ADD24R,0.700000X1.300000*%
%ADD25RotRect,0.700000X1.300000X135.000000*%
%ADD26Outline4P,-1.500000X-1.050000X1.500000X-1.050000X1.500000X1.050000X-1.500000X1.050000X35.900000*%
%ADD27R,1.500000X0.450000*%
%ADD28R,1.060000X0.650000*%
%ADD29Outline4P,-0.400000X-0.600000X0.400000X-0.600000X0.400000X0.600000X-0.400000X0.600000X90.000000*%
%ADD30R,1.800000X1.500000*%
%ADD31R,0.450000X1.450000*%
%ADD32RotRect,1.500000X1.800000X315.000000*%
%ADD33RotRect,1.450000X0.450000X315.000000*%
%ADD34Outline4P,-0.400000X-0.500000X0.400000X-0.500000X1.100000X0.500000X-1.100000X0.500000X270.000000*%
%ADD35R,1.840000X2.200000*%
%ADD36R,1.500000X1.000000*%
%ADD37R,1.800000X1.000000*%
%ADD38Outline4P,-0.500000X-0.425000X0.500000X-0.425000X1.100000X0.425000X-1.100000X0.425000X90.000000*%
%ADD39R,0.825000X0.250000*%
%ADD40R,0.250000X0.825000*%
%ADD41R,2.650000X2.650000*%
%ADD42R,1.100000X1.950000*%
%ADD43R,0.900000X0.600000*%
%ADD44R,1.300000X0.700000*%
%ADD45RotRect,0.600000X0.900000X135.000000*%
%ADD46RotRect,0.600000X0.900000X315.000000*%
%ADD47RotRect,0.600000X0.900000X45.000000*%
%ADD48R,0.900000X0.800000*%
%ADD49R,0.800000X0.900000*%
%ADD50R,3.600000X2.700000*%
%ADD51R,2.700000X3.600000*%
%ADD52RoundRect,0.250001X0.799999X1.249999X-0.799999X1.249999X-0.799999X-1.249999X0.799999X-1.249999X0*%
%ADD53RoundRect,0.200000X0.200000X0.600000X-0.200000X0.600000X-0.200000X-0.600000X0.200000X-0.600000X0*%
%ADD54Outline4P,-1.500000X-1.050000X1.500000X-1.050000X1.500000X1.050000X-1.500000X1.050000X324.100000*%
%ADD55Outline4P,-1.500000X-1.050000X1.500000X-1.050000X1.500000X1.050000X-1.500000X1.050000X252.000000*%
%ADD56Outline4P,-1.500000X-1.050000X1.500000X-1.050000X1.500000X1.050000X-1.500000X1.050000X108.000000*%
%ADD57Outline4P,-1.500000X-1.050000X1.500000X-1.050000X1.500000X1.050000X-1.500000X1.050000X0.000000*%
%ADD58R,0.600000X1.450000*%
%ADD59O,1.000000X2.100000*%
%ADD60O,1.000000X1.600000*%
%ADD61C,0.650000*%
%ADD62R,0.300000X1.450000*%
%ADD63R,1.300000X0.900000*%
%ADD64C,1.750000*%
%ADD65R,1.800000X2.500000*%
%ADD66RotRect,2.500000X1.800000X315.000000*%
%ADD67RotRect,0.700000X1.300000X315.000000*%
G04 APERTURE END LIST*
D10*
X130850000Y-124000000D03*
X132350000Y-124000000D03*
D11*
X73704936Y-119454294D03*
X70004936Y-113045706D03*
X74335064Y-110545706D03*
X78035064Y-116954294D03*
D12*
X74020000Y-115000000D03*
D11*
X129995064Y-113045706D03*
X126295064Y-119454294D03*
X121964936Y-116954294D03*
X125664936Y-110545706D03*
D12*
X125980000Y-115000000D03*
D11*
X96300000Y-67500000D03*
X103700000Y-67500000D03*
X103700000Y-72500000D03*
X96300000Y-72500000D03*
D12*
X100000000Y-70000000D03*
D13*
X139816117Y-118694291D03*
X133805709Y-112683883D03*
D14*
X133487511Y-115476955D03*
D15*
X137023045Y-119012489D03*
X135255278Y-117244722D03*
X145084062Y-107415938D03*
D13*
X134940498Y-96078438D03*
X126569632Y-97554447D03*
D16*
X128675072Y-99417140D03*
D17*
X133599110Y-98548899D03*
X131137091Y-98983020D03*
X128723381Y-85294192D03*
D13*
X73216117Y-80194291D03*
X67205709Y-74183883D03*
D14*
X66887511Y-76976955D03*
D15*
X70423045Y-80512489D03*
X68655278Y-78744722D03*
X78484062Y-68915938D03*
D13*
X127405709Y-73616117D03*
X133416117Y-67605709D03*
D18*
X130623045Y-67287511D03*
D19*
X127087511Y-70823045D03*
X128855278Y-69055278D03*
X138684062Y-78884062D03*
D20*
X119666548Y-122797918D03*
X119666548Y-125597918D03*
X72000000Y-104600000D03*
X72000000Y-107400000D03*
D21*
X125310051Y-61610051D03*
X127289949Y-63589949D03*
D22*
X70089062Y-103507843D03*
X68819062Y-103507843D03*
X67549062Y-103507843D03*
X66279062Y-103507843D03*
X66279062Y-108657843D03*
X67549062Y-108657843D03*
X68819062Y-108657843D03*
X70089062Y-108657843D03*
D23*
X123126238Y-62332162D03*
X122228213Y-63230187D03*
X121330187Y-64128213D03*
X120432162Y-65026238D03*
X124073762Y-68667838D03*
X124971787Y-67769813D03*
X125869813Y-66871787D03*
X126767838Y-65973762D03*
D24*
X62850000Y-109800000D03*
X64750000Y-109800000D03*
D25*
X118628249Y-69228249D03*
X119971751Y-70571751D03*
D26*
X125233601Y-128687213D03*
X127579090Y-131927380D03*
X119563310Y-132791820D03*
X121908799Y-136031987D03*
D27*
X135537868Y-107245711D03*
X135537868Y-106595711D03*
X135537868Y-105945711D03*
X135537868Y-105295711D03*
X135537868Y-104645711D03*
X135537868Y-103995711D03*
X135537868Y-103345711D03*
X135537868Y-102695711D03*
X129637868Y-102695711D03*
X129637868Y-103345711D03*
X129637868Y-103995711D03*
X129637868Y-104645711D03*
X129637868Y-105295711D03*
X129637868Y-105945711D03*
X129637868Y-106595711D03*
X129637868Y-107245711D03*
D28*
X133400000Y-122650000D03*
X133400000Y-120750000D03*
X131200000Y-120750000D03*
X131200000Y-121700000D03*
X131200000Y-122650000D03*
D29*
X121890559Y-122927918D03*
X121890559Y-125467918D03*
X128190559Y-122927918D03*
X128190559Y-125467918D03*
X128190559Y-124197918D03*
D30*
X58500000Y-109850000D03*
D31*
X57450000Y-113550000D03*
X58100000Y-113550000D03*
X58750000Y-113550000D03*
X59400000Y-113550000D03*
X60050000Y-113550000D03*
X60700000Y-113550000D03*
X61350000Y-113550000D03*
X61350000Y-107650000D03*
X60700000Y-107650000D03*
X60050000Y-107650000D03*
X59400000Y-107650000D03*
X58750000Y-107650000D03*
X58100000Y-107650000D03*
X57450000Y-107650000D03*
D30*
X58500000Y-111350000D03*
X60300000Y-111350000D03*
X60300000Y-109850000D03*
D32*
X113654773Y-70953048D03*
D33*
X115528606Y-74311805D03*
X115988225Y-73852186D03*
X116447845Y-73392566D03*
X116907464Y-72932947D03*
X117367083Y-72473328D03*
X117826703Y-72013708D03*
X118286322Y-71554089D03*
X114114392Y-67382159D03*
X113654773Y-67841778D03*
X113195153Y-68301398D03*
X112735534Y-68761017D03*
X112275915Y-69220636D03*
X111816295Y-69680256D03*
X111356676Y-70139875D03*
D32*
X114715433Y-72013708D03*
X115988225Y-70740916D03*
X114927565Y-69680256D03*
D34*
X113723800Y-127400000D03*
D35*
X115133500Y-127400000D03*
D36*
X112320000Y-125900000D03*
D37*
X112466500Y-127400000D03*
D36*
X112320000Y-128900000D03*
D38*
X116467000Y-127400000D03*
D39*
X101962500Y-134050000D03*
X101962500Y-133550000D03*
X101962500Y-133050000D03*
X101962500Y-132550000D03*
X101962500Y-132050000D03*
X101962500Y-131550000D03*
D40*
X101250000Y-130837500D03*
X100750000Y-130837500D03*
X100250000Y-130837500D03*
X99750000Y-130837500D03*
X99250000Y-130837500D03*
X98750000Y-130837500D03*
D39*
X98037500Y-131550000D03*
X98037500Y-132050000D03*
X98037500Y-132550000D03*
X98037500Y-133050000D03*
X98037500Y-133550000D03*
X98037500Y-134050000D03*
D40*
X98750000Y-134762500D03*
X99250000Y-134762500D03*
X99750000Y-134762500D03*
X100250000Y-134762500D03*
X100750000Y-134762500D03*
X101250000Y-134762500D03*
D41*
X100000000Y-132800000D03*
D42*
X144700000Y-94975000D03*
X139700000Y-94975000D03*
X144700000Y-100625000D03*
X139700000Y-100625000D03*
X142200000Y-94975000D03*
X142200000Y-100625000D03*
X109200000Y-137425000D03*
X114200000Y-137425000D03*
X109200000Y-131775000D03*
X114200000Y-131775000D03*
X111700000Y-137425000D03*
X111700000Y-131775000D03*
X90800000Y-131775000D03*
X85800000Y-131775000D03*
X90800000Y-137425000D03*
X85800000Y-137425000D03*
X88300000Y-131775000D03*
X88300000Y-137425000D03*
D10*
X106050000Y-129900000D03*
X104550000Y-129900000D03*
X134650000Y-101150000D03*
X136150000Y-101150000D03*
D43*
X71000000Y-90250000D03*
X71000000Y-91750000D03*
D10*
X99250000Y-55000000D03*
X97750000Y-55000000D03*
D43*
X72400000Y-93650000D03*
X72400000Y-95150000D03*
D10*
X97750000Y-53500000D03*
X99250000Y-53500000D03*
D43*
X71000000Y-94550000D03*
X71000000Y-96050000D03*
D10*
X97750000Y-52000000D03*
X99250000Y-52000000D03*
D44*
X70500000Y-99850000D03*
X70500000Y-101750000D03*
D25*
X122328249Y-58828249D03*
X123671751Y-60171751D03*
D10*
X131350000Y-108500000D03*
X129850000Y-108500000D03*
D43*
X128000000Y-106500000D03*
X128000000Y-105000000D03*
D10*
X131600000Y-101350000D03*
X130100000Y-101350000D03*
X139050000Y-105300000D03*
X140550000Y-105300000D03*
X128650000Y-126800000D03*
X127150000Y-126800000D03*
D43*
X121800000Y-128150000D03*
X121800000Y-126650000D03*
D10*
X61550000Y-105600000D03*
X63050000Y-105600000D03*
D45*
X117069670Y-66169670D03*
X118130330Y-67230330D03*
D43*
X62800000Y-108350000D03*
X62800000Y-106850000D03*
D46*
X116530330Y-67530330D03*
X115469670Y-66469670D03*
D43*
X62600000Y-115250000D03*
X62600000Y-116750000D03*
X121900000Y-72950000D03*
X121900000Y-74450000D03*
D10*
X60150000Y-115400000D03*
X58650000Y-115400000D03*
D47*
X118630330Y-73569670D03*
X117569670Y-74630330D03*
D43*
X96700000Y-133450000D03*
X96700000Y-134950000D03*
X96600000Y-131650000D03*
X96600000Y-130150000D03*
D48*
X70200000Y-93400000D03*
X68200000Y-92450000D03*
X68200000Y-94350000D03*
D49*
X95500000Y-52500000D03*
X94550000Y-54500000D03*
X96450000Y-54500000D03*
D48*
X67600000Y-97400000D03*
X69600000Y-98350000D03*
X69600000Y-96450000D03*
D49*
X72300000Y-96400000D03*
X71350000Y-98400000D03*
X73250000Y-98400000D03*
X105000000Y-54000000D03*
X105950000Y-52000000D03*
X104050000Y-52000000D03*
D48*
X100500000Y-53000000D03*
X102500000Y-53950000D03*
X102500000Y-52050000D03*
D50*
X58400000Y-95250000D03*
X58400000Y-103550000D03*
D51*
X117450000Y-60100000D03*
X109150000Y-60100000D03*
D52*
X84325000Y-143500000D03*
X90675000Y-143500000D03*
D53*
X86875000Y-140600000D03*
X88125000Y-140600000D03*
D52*
X109325000Y-143500000D03*
X115675000Y-143500000D03*
D53*
X111875000Y-140600000D03*
X113125000Y-140600000D03*
D54*
X80496480Y-132792900D03*
X78150991Y-136033067D03*
X74826189Y-128688293D03*
X72480700Y-131928460D03*
D55*
X62778294Y-91586052D03*
X58974067Y-90349984D03*
X64941413Y-84928656D03*
X61137186Y-83692588D03*
D56*
X135058587Y-84928656D03*
X138862814Y-83692588D03*
X137221706Y-91586052D03*
X141025933Y-90349984D03*
D57*
X103500000Y-58000000D03*
X103500000Y-62000000D03*
X96500000Y-58000000D03*
X96500000Y-62000000D03*
D58*
X102290000Y-138500000D03*
X97490000Y-138500000D03*
X96690000Y-138500000D03*
X103090000Y-138500000D03*
D59*
X104210000Y-139415000D03*
X95570000Y-139415000D03*
D60*
X104210000Y-143595000D03*
X95570000Y-143595000D03*
D61*
X97000000Y-139945000D03*
X102780000Y-139945000D03*
D58*
X96690000Y-138500000D03*
X97490000Y-138500000D03*
D62*
X98140000Y-138500000D03*
X98640000Y-138500000D03*
X99140000Y-138500000D03*
X99640000Y-138500000D03*
X100140000Y-138500000D03*
X100640000Y-138500000D03*
X101140000Y-138500000D03*
X101640000Y-138500000D03*
D58*
X102290000Y-138500000D03*
X103090000Y-138500000D03*
D63*
X103100000Y-126600000D03*
X103100000Y-129400000D03*
D64*
X103100000Y-128000000D03*
D65*
X54700000Y-110700000D03*
X54700000Y-106700000D03*
D66*
X110817515Y-73393251D03*
X107989087Y-70564823D03*
D44*
X74000000Y-93150000D03*
X74000000Y-95050000D03*
D24*
X102450000Y-55500000D03*
X100550000Y-55500000D03*
D10*
X132950000Y-108600000D03*
X134450000Y-108600000D03*
D43*
X134850000Y-120750000D03*
X134850000Y-122250000D03*
X128000000Y-102500000D03*
X128000000Y-104000000D03*
X137800000Y-105950000D03*
X137800000Y-104450000D03*
X129700000Y-123450000D03*
X129700000Y-124950000D03*
D44*
X64507107Y-107174264D03*
X64507107Y-105274264D03*
D67*
X121671751Y-68871751D03*
X120328249Y-67528249D03*
D10*
X60150000Y-116700000D03*
X58650000Y-116700000D03*
D47*
X119630330Y-74569670D03*
X118569670Y-75630330D03*
D10*
X58750000Y-106000000D03*
X57250000Y-106000000D03*
D47*
X111559976Y-67276777D03*
X110499316Y-68337437D03*
D43*
X61300000Y-116750000D03*
X61300000Y-115250000D03*
D46*
X120530330Y-73730330D03*
X119469670Y-72669670D03*
D24*
X54050000Y-113300000D03*
X55950000Y-113300000D03*
D25*
X112955814Y-74308505D03*
X114299316Y-75652007D03*
D24*
X54050000Y-115050000D03*
X55950000Y-115050000D03*
D25*
X111728248Y-75528249D03*
X113071750Y-76871751D03*
D43*
X110700000Y-125450000D03*
X110700000Y-126950000D03*
X110700000Y-129450000D03*
X110700000Y-127950000D03*
D10*
X103450000Y-135300000D03*
X104950000Y-135300000D03*
X103450000Y-132700000D03*
X104950000Y-132700000D03*
X103450000Y-134000000D03*
X104950000Y-134000000D03*
X103450000Y-131400000D03*
X104950000Y-131400000D03*
M02*
